<svg width="24"  viewBox="0 0 531 531" fill="none" xmlns="http://www.w3.org/2000/svg">
<path d="M233.043 28.2979C118.435 28.2979 24.9128 119.895 24.9128 233.596C24.9128 347.296 118.413 438.894 233.043 438.894C282.47 438.894 327.959 421.857 363.735 393.36L460.045 489.67C462.086 491.784 464.527 493.469 467.227 494.629C469.926 495.788 472.829 496.399 475.767 496.424C478.705 496.45 481.618 495.89 484.337 494.777C487.056 493.665 489.527 492.022 491.604 489.945C493.681 487.867 495.324 485.397 496.437 482.678C497.549 479.959 498.109 477.045 498.084 474.108C498.058 471.17 497.448 468.267 496.288 465.567C495.129 462.868 493.443 460.427 491.33 458.386L395.219 362.275C424.975 325.997 441.217 280.516 441.173 233.596C441.173 119.873 347.672 28.2757 233.043 28.2757V28.2979ZM69.1627 233.596C69.1627 144.963 142.219 72.5257 233.043 72.5257C323.866 72.5257 396.923 144.963 396.923 233.596C396.923 322.228 323.866 394.644 233.043 394.644C142.219 394.644 69.1627 322.228 69.1627 233.574V233.596Z" fill="#968888"/>
</svg>
