<svg width="24" viewBox="0 0 491 491" fill="none" xmlns="http://www.w3.org/2000/svg">
<path d="M276.188 30.9944C266.857 25.6076 256.274 22.7717 245.5 22.7717C234.726 22.7717 224.143 25.6076 214.813 30.9944L61.375 119.579C55.155 123.17 49.9899 128.335 46.3987 134.555C42.8075 140.775 40.9169 147.831 40.9167 155.013V429.625C40.9167 435.051 43.0721 440.255 46.9088 444.091C50.7455 447.928 55.9491 450.083 61.375 450.083H184.125C189.551 450.083 194.755 447.928 198.591 444.091C202.428 440.255 204.583 435.051 204.583 429.625V306.875H286.417V429.625C286.417 435.051 288.572 440.255 292.409 444.091C296.245 447.928 301.449 450.083 306.875 450.083H429.625C435.051 450.083 440.255 447.928 444.091 444.091C447.928 440.255 450.083 435.051 450.083 429.625V155.013C450.083 147.831 448.192 140.775 444.601 134.555C441.01 128.335 435.845 123.17 429.625 119.579L276.188 30.9944Z" fill="white"/>
</svg>
