<svg width="24" viewBox="0 0 722 722" fill="none" xmlns="http://www.w3.org/2000/svg">
<path d="M0 0H722V722H0V0Z" fill="#C4C4C4"/>
<path d="M557.656 352C557.656 357.395 555.513 362.57 551.698 366.385C547.882 370.2 542.708 372.344 537.312 372.344H381.344V528.312C381.344 533.708 379.2 538.882 375.385 542.698C371.57 546.513 366.395 548.656 361 548.656C355.605 548.656 350.43 546.513 346.615 542.698C342.8 538.882 340.656 533.708 340.656 528.312V372.344H184.688C179.292 372.344 174.117 370.2 170.302 366.385C166.487 362.57 164.344 357.395 164.344 352C164.344 346.605 166.487 341.43 170.302 337.615C174.117 333.8 179.292 331.656 184.688 331.656H340.656V175.688C340.656 170.292 342.8 165.117 346.615 161.302C350.43 157.487 355.605 155.344 361 155.344C366.395 155.344 371.57 157.487 375.385 161.302C379.2 165.117 381.344 170.292 381.344 175.688V331.656H537.312C542.708 331.656 547.882 333.8 551.698 337.615C555.513 341.43 557.656 346.605 557.656 352Z" fill="black"/>
</svg>
