<svg width="24" viewBox="0 0 641 537" fill="none" xmlns="http://www.w3.org/2000/svg">
<path d="M387.271 -47.0044C391.331 -49.3486 395.937 -50.5827 400.625 -50.5827C405.313 -50.5827 409.919 -49.3486 413.979 -47.0044L574.229 45.513C578.289 47.857 581.661 51.229 584.005 55.289C586.349 59.349 587.583 63.955 587.583 68.643V456.875C587.583 463.959 584.769 470.752 579.761 475.761C574.752 480.769 567.959 483.583 560.875 483.583H400.625C393.542 483.583 386.748 480.769 381.739 475.761C376.731 470.752 373.917 463.959 373.917 456.875V-23.875C373.917 -28.5632 375.151 -33.1687 377.495 -37.2288C379.839 -41.2888 383.211 -44.6603 387.271 -47.0044ZM427.333 22.384V430.167H534.167V84.053L427.333 22.384ZM80.125 483.583C73.0415 483.583 66.2481 480.769 61.2394 475.761C56.2306 470.752 53.4167 463.959 53.4167 456.875V-23.875C53.4167 -30.9585 56.2306 -37.7519 61.2394 -42.7606C66.2481 -47.7694 73.0415 -50.5833 80.125 -50.5833C87.2085 -50.5833 94.0019 -47.7694 99.0107 -42.7606C104.019 -37.7519 106.833 -30.9585 106.833 -23.875V456.875C106.833 463.959 104.019 470.752 99.0107 475.761C94.0019 480.769 87.2085 483.583 80.125 483.583ZM240.375 483.583C233.292 483.583 226.498 480.769 221.489 475.761C216.481 470.752 213.667 463.959 213.667 456.875V-23.875C213.667 -30.9585 216.481 -37.7519 221.489 -42.7606C226.498 -47.7694 233.292 -50.5833 240.375 -50.5833C247.459 -50.5833 254.252 -47.7694 259.261 -42.7606C264.269 -37.7519 267.083 -30.9585 267.083 -23.875V456.875C267.083 463.959 264.269 470.752 259.261 475.761C254.252 480.769 247.459 483.583 240.375 483.583Z" fill="#968888"/>
</svg>
